# xmcd
#
# Track frame offsets:
#	150
#	17615
#	31850
#	48475
#	71035
#	90035
#	107750
#	128688
#	142838
#
# Disc length: 2072 seconds
#
# Revision: 1
# Processed by: cddbd v1.5.2PL0 Copyright (c) Steve Scherf et al.
# Submitted via: audiograbber 1.83.01
#
DISCID=66081609
DTITLE=Paul Overstreet - Love Is Strong
DYEAR=1992
DGENRE=Folk, Country
TTITLE0=Take Another Run
TTITLE1=Still Out There Swinging	
TTITLE2=Me And My Baby
TTITLE3=There But For The Grace Of God Go I
TTITLE4=Love Is Strong
TTITLE5=Head Over Heels
TTITLE6=What's Going Without Saying
TTITLE7=Take Some Action
TTITLE8=Lord She Sure Is Good At Loving Me
EXTD=
EXTT0=
EXTT1=
EXTT2=
EXTT3=
EXTT4=
EXTT5=
EXTT6=
EXTT7=
EXTT8=
PLAYORDER=
